<?xml version="1.0" encoding="UTF-8"?>
<svg xmlns="http://www.w3.org/2000/svg"
     xmlns:inkscape="http://www.inkscape.org/namespaces/inkscape"
     width="8in" height="8in"
     viewBox="0 0 8 8">
  <g id="grid" stroke="#e0e0e0" stroke-width="0.01" fill="none">
    <line x1="0.0000" y1="0.0000" x2="0.0000" y2="8.0000"/>
    <line x1="1.0000" y1="0.0000" x2="1.0000" y2="8.0000"/>
    <line x1="2.0000" y1="0.0000" x2="2.0000" y2="8.0000"/>
    <line x1="3.0000" y1="0.0000" x2="3.0000" y2="8.0000"/>
    <line x1="4.0000" y1="0.0000" x2="4.0000" y2="8.0000"/>
    <line x1="5.0000" y1="0.0000" x2="5.0000" y2="8.0000"/>
    <line x1="6.0000" y1="0.0000" x2="6.0000" y2="8.0000"/>
    <line x1="7.0000" y1="0.0000" x2="7.0000" y2="8.0000"/>
    <line x1="8.0000" y1="0.0000" x2="8.0000" y2="8.0000"/>
    <line x1="0.0000" y1="0.0000" x2="8.0000" y2="0.0000"/>
    <line x1="0.0000" y1="1.0000" x2="8.0000" y2="1.0000"/>
    <line x1="0.0000" y1="2.0000" x2="8.0000" y2="2.0000"/>
    <line x1="0.0000" y1="3.0000" x2="8.0000" y2="3.0000"/>
    <line x1="0.0000" y1="4.0000" x2="8.0000" y2="4.0000"/>
    <line x1="0.0000" y1="5.0000" x2="8.0000" y2="5.0000"/>
    <line x1="0.0000" y1="6.0000" x2="8.0000" y2="6.0000"/>
    <line x1="0.0000" y1="7.0000" x2="8.0000" y2="7.0000"/>
    <line x1="0.0000" y1="8.0000" x2="8.0000" y2="8.0000"/>
  </g>
  <g id="grid-center" stroke="#c0c0c0" stroke-width="0.015" fill="none">
    <line x1="0.0000" y1="4.0000" x2="8.0000" y2="4.0000"/>
    <line x1="4.0000" y1="0.0000" x2="4.0000" y2="8.0000"/>
  </g>
  <g inkscape:groupmode="layer" inkscape:label="strings" stroke="#6a0572" stroke-width="0.00984251968503937" fill="none" opacity="1.0">
    <line x1="7.0000" y1="1.0000" x2="7.0000" y2="7.0000"/>
    <line x1="6.9957" y1="1.1597" x2="6.8983" y2="7.0000"/>
    <line x1="6.9830" y1="1.3189" x2="6.7966" y2="7.0000"/>
    <line x1="6.9618" y1="1.4772" x2="6.6949" y2="7.0000"/>
    <line x1="6.9322" y1="1.6341" x2="6.5932" y2="7.0000"/>
    <line x1="6.8943" y1="1.7893" x2="6.4915" y2="7.0000"/>
    <line x1="6.8482" y1="1.9422" x2="6.3898" y2="7.0000"/>
    <line x1="6.7940" y1="2.0925" x2="6.2881" y2="7.0000"/>
    <line x1="6.7319" y1="2.2396" x2="6.1864" y2="7.0000"/>
    <line x1="6.6621" y1="2.3833" x2="6.0847" y2="7.0000"/>
    <line x1="6.5847" y1="2.5230" x2="5.9831" y2="7.0000"/>
    <line x1="6.4999" y1="2.6584" x2="5.8814" y2="7.0000"/>
    <line x1="6.4081" y1="2.7891" x2="5.7797" y2="7.0000"/>
    <line x1="6.3095" y1="2.9147" x2="5.6780" y2="7.0000"/>
    <line x1="6.2043" y1="3.0349" x2="5.5763" y2="7.0000"/>
    <line x1="6.0929" y1="3.1494" x2="5.4746" y2="7.0000"/>
    <line x1="5.9755" y1="3.2577" x2="5.3729" y2="7.0000"/>
    <line x1="5.8526" y1="3.3597" x2="5.2712" y2="7.0000"/>
    <line x1="5.7244" y1="3.4549" x2="5.1695" y2="7.0000"/>
    <line x1="5.5913" y1="3.5432" x2="5.0678" y2="7.0000"/>
    <line x1="5.4537" y1="3.6243" x2="4.9661" y2="7.0000"/>
    <line x1="5.3119" y1="3.6979" x2="4.8644" y2="7.0000"/>
    <line x1="5.1665" y1="3.7639" x2="4.7627" y2="7.0000"/>
    <line x1="5.0177" y1="3.8221" x2="4.6610" y2="7.0000"/>
    <line x1="4.8661" y1="3.8723" x2="4.5593" y2="7.0000"/>
    <line x1="4.7120" y1="3.9143" x2="4.4576" y2="7.0000"/>
    <line x1="4.5559" y1="3.9481" x2="4.3559" y2="7.0000"/>
    <line x1="4.3982" y1="3.9735" x2="4.2542" y2="7.0000"/>
    <line x1="4.2394" y1="3.9904" x2="4.1525" y2="7.0000"/>
    <line x1="4.0799" y1="3.9989" x2="4.0508" y2="7.0000"/>
    <line x1="3.9201" y1="3.9989" x2="3.9492" y2="7.0000"/>
    <line x1="3.7606" y1="3.9904" x2="3.8475" y2="7.0000"/>
    <line x1="3.6018" y1="3.9735" x2="3.7458" y2="7.0000"/>
    <line x1="3.4441" y1="3.9481" x2="3.6441" y2="7.0000"/>
    <line x1="3.2880" y1="3.9143" x2="3.5424" y2="7.0000"/>
    <line x1="3.1339" y1="3.8723" x2="3.4407" y2="7.0000"/>
    <line x1="2.9823" y1="3.8221" x2="3.3390" y2="7.0000"/>
    <line x1="2.8335" y1="3.7639" x2="3.2373" y2="7.0000"/>
    <line x1="2.6881" y1="3.6979" x2="3.1356" y2="7.0000"/>
    <line x1="2.5463" y1="3.6243" x2="3.0339" y2="7.0000"/>
    <line x1="2.4087" y1="3.5432" x2="2.9322" y2="7.0000"/>
    <line x1="2.2756" y1="3.4549" x2="2.8305" y2="7.0000"/>
    <line x1="2.1474" y1="3.3597" x2="2.7288" y2="7.0000"/>
    <line x1="2.0245" y1="3.2577" x2="2.6271" y2="7.0000"/>
    <line x1="1.9071" y1="3.1494" x2="2.5254" y2="7.0000"/>
    <line x1="1.7957" y1="3.0349" x2="2.4237" y2="7.0000"/>
    <line x1="1.6905" y1="2.9147" x2="2.3220" y2="7.0000"/>
    <line x1="1.5919" y1="2.7891" x2="2.2203" y2="7.0000"/>
    <line x1="1.5001" y1="2.6584" x2="2.1186" y2="7.0000"/>
    <line x1="1.4153" y1="2.5230" x2="2.0169" y2="7.0000"/>
    <line x1="1.3379" y1="2.3833" x2="1.9153" y2="7.0000"/>
    <line x1="1.2681" y1="2.2396" x2="1.8136" y2="7.0000"/>
    <line x1="1.2060" y1="2.0925" x2="1.7119" y2="7.0000"/>
    <line x1="1.1518" y1="1.9422" x2="1.6102" y2="7.0000"/>
    <line x1="1.1057" y1="1.7893" x2="1.5085" y2="7.0000"/>
    <line x1="1.0678" y1="1.6341" x2="1.4068" y2="7.0000"/>
    <line x1="1.0382" y1="1.4772" x2="1.3051" y2="7.0000"/>
    <line x1="1.0170" y1="1.3189" x2="1.2034" y2="7.0000"/>
    <line x1="1.0043" y1="1.1597" x2="1.1017" y2="7.0000"/>
    <line x1="1.0000" y1="1.0000" x2="1.0000" y2="7.0000"/>
  </g>
  <g inkscape:groupmode="layer" inkscape:label="bounds" stroke="#c0c0c0" stroke-width="0.00984251968503937" fill="none" opacity="1.0">
    <polyline points="7.0000,1.0000 6.9957,1.1597 6.9830,1.3189 6.9618,1.4772 6.9322,1.6341 6.8943,1.7893 6.8482,1.9422 6.7940,2.0925 6.7319,2.2396 6.6621,2.3833 6.5847,2.5230 6.4999,2.6584 6.4081,2.7891 6.3095,2.9147 6.2043,3.0349 6.0929,3.1494 5.9755,3.2577 5.8526,3.3597 5.7244,3.4549 5.5913,3.5432 5.4537,3.6243 5.3119,3.6979 5.1665,3.7639 5.0177,3.8221 4.8661,3.8723 4.7120,3.9143 4.5559,3.9481 4.3982,3.9735 4.2394,3.9904 4.0799,3.9989 3.9201,3.9989 3.7606,3.9904 3.6018,3.9735 3.4441,3.9481 3.2880,3.9143 3.1339,3.8723 2.9823,3.8221 2.8335,3.7639 2.6881,3.6979 2.5463,3.6243 2.4087,3.5432 2.2756,3.4549 2.1474,3.3597 2.0245,3.2577 1.9071,3.1494 1.7957,3.0349 1.6905,2.9147 1.5919,2.7891 1.5001,2.6584 1.4153,2.5230 1.3379,2.3833 1.2681,2.2396 1.2060,2.0925 1.1518,1.9422 1.1057,1.7893 1.0678,1.6341 1.0382,1.4772 1.0170,1.3189 1.0043,1.1597 1.0000,1.0000"/>
    <polyline points="1.0000,7.0000 1.1017,7.0000 1.2034,7.0000 1.3051,7.0000 1.4068,7.0000 1.5085,7.0000 1.6102,7.0000 1.7119,7.0000 1.8136,7.0000 1.9153,7.0000 2.0169,7.0000 2.1186,7.0000 2.2203,7.0000 2.3220,7.0000 2.4237,7.0000 2.5254,7.0000 2.6271,7.0000 2.7288,7.0000 2.8305,7.0000 2.9322,7.0000 3.0339,7.0000 3.1356,7.0000 3.2373,7.0000 3.3390,7.0000 3.4407,7.0000 3.5424,7.0000 3.6441,7.0000 3.7458,7.0000 3.8475,7.0000 3.9492,7.0000 4.0508,7.0000 4.1525,7.0000 4.2542,7.0000 4.3559,7.0000 4.4576,7.0000 4.5593,7.0000 4.6610,7.0000 4.7627,7.0000 4.8644,7.0000 4.9661,7.0000 5.0678,7.0000 5.1695,7.0000 5.2712,7.0000 5.3729,7.0000 5.4746,7.0000 5.5763,7.0000 5.6780,7.0000 5.7797,7.0000 5.8814,7.0000 5.9831,7.0000 6.0847,7.0000 6.1864,7.0000 6.2881,7.0000 6.3898,7.0000 6.4915,7.0000 6.5932,7.0000 6.6949,7.0000 6.7966,7.0000 6.8983,7.0000 7.0000,7.0000"/>
  </g>
</svg>